HIERARCHY
ROOT Hips
{
  OFFSET 1.27532 93.8861 21.0707
  CHANNELS 6 Xposition Yposition Zposition Zrotation Xrotation Yrotation
  JOINT Spine
  {
    OFFSET 0 9.9235 -1.2273
    CHANNELS 6 Xposition Yposition Zposition Zrotation Xrotation Yrotation
    JOINT Spine1
    {
      OFFSET -0.0001 11.6454 -1.4223
      CHANNELS 6 Xposition Yposition Zposition Zrotation Xrotation Yrotation
      JOINT Spine2
      {
        OFFSET 0.0001 13.3602 -1.6265
        CHANNELS 6 Xposition Yposition Zposition Zrotation Xrotation Yrotation
        JOINT Neck
        {
          OFFSET 0 15.0325 0.7929
          CHANNELS 6 Xposition Yposition Zposition Zrotation Xrotation Yrotation
          JOINT Head
          {
            OFFSET 0 10.3218 3.1424
            CHANNELS 6 Xposition Yposition Zposition Zrotation Xrotation Yrotation
            JOINT HeadTop_End
            {
              OFFSET 0.0002 18.4747 6.6364
              CHANNELS 6 Xposition Yposition Zposition Zrotation Xrotation Yrotation
              End Site
              {
                OFFSET 0 0 0
              }
            }
            JOINT LeftEye
            {
              OFFSET 2.9479 7.6817 9.1207
              CHANNELS 6 Xposition Yposition Zposition Zrotation Xrotation Yrotation
              End Site
              {
                OFFSET 0 0 0
              }
            }
            JOINT RightEye
            {
              OFFSET -2.9445 7.6817 9.1205
              CHANNELS 6 Xposition Yposition Zposition Zrotation Xrotation Yrotation
              End Site
              {
                OFFSET 0 0 0
              }
            }
          }
        }
        JOINT LeftShoulder
        {
          OFFSET 6.1058 9.1104 0.7056
          CHANNELS 6 Xposition Yposition Zposition Zrotation Xrotation Yrotation
          JOINT LeftArm
          {
            OFFSET 12.655 -0.2659 -2.6009
            CHANNELS 6 Xposition Yposition Zposition Zrotation Xrotation Yrotation
            JOINT LeftForeArm
            {
              OFFSET 27.4047 0 0
              CHANNELS 6 Xposition Yposition Zposition Zrotation Xrotation Yrotation
              JOINT LeftHand
              {
                OFFSET 27.6145 0 0
                CHANNELS 6 Xposition Yposition Zposition Zrotation Xrotation Yrotation
                JOINT LeftHandMiddle1
                {
                  OFFSET 12.7755 0 0
                  CHANNELS 6 Xposition Yposition Zposition Zrotation Xrotation Yrotation
                  JOINT LeftHandMiddle2
                  {
                    OFFSET 3.614 0 0
                    CHANNELS 6 Xposition Yposition Zposition Zrotation Xrotation Yrotation
                    JOINT LeftHandMiddle3
                    {
                      OFFSET 3.4598 0 0
                      CHANNELS 6 Xposition Yposition Zposition Zrotation Xrotation Yrotation
                      End Site
                      {
                        OFFSET 3.6802 0 0
                      }
                    }
                  }
                }
                JOINT LeftHandThumb1
                {
                  OFFSET 3.7888 -2.167 3.0031
                  CHANNELS 6 Xposition Yposition Zposition Zrotation Xrotation Yrotation
                  JOINT LeftHandThumb2
                  {
                    OFFSET 3.6754 -2.122 2.122
                    CHANNELS 6 Xposition Yposition Zposition Zrotation Xrotation Yrotation
                    JOINT LeftHandThumb3
                    {
                      OFFSET 3.3944 -1.9597 1.9598
                      CHANNELS 6 Xposition Yposition Zposition Zrotation Xrotation Yrotation
                      End Site
                      {
                        OFFSET 2.6794 -1.5469 1.5469
                      }
                    }
                  }
                }
                JOINT LeftHandIndex1
                {
                  OFFSET 12.2666 -0.2317 2.8221
                  CHANNELS 6 Xposition Yposition Zposition Zrotation Xrotation Yrotation
                  JOINT LeftHandIndex2
                  {
                    OFFSET 3.892 0 0
                    CHANNELS 6 Xposition Yposition Zposition Zrotation Xrotation Yrotation
                    JOINT LeftHandIndex3
                    {
                      OFFSET 3.4152 0 0
                      CHANNELS 6 Xposition Yposition Zposition Zrotation Xrotation Yrotation
                      End Site
                      {
                        OFFSET 3.078 0 0
                      }
                    }
                  }
                }
                JOINT LeftHandRing1
                {
                  OFFSET 12.147 0.0099 -2.2166
                  CHANNELS 6 Xposition Yposition Zposition Zrotation Xrotation Yrotation
                  JOINT LeftHandRing2
                  {
                    OFFSET 3.6012 0 0
                    CHANNELS 6 Xposition Yposition Zposition Zrotation Xrotation Yrotation
                    JOINT LeftHandRing3
                    {
                      OFFSET 3.3073 0 0
                      CHANNELS 6 Xposition Yposition Zposition Zrotation Xrotation Yrotation
                      End Site
                      {
                        OFFSET 3.6601 0 0
                      }
                    }
                  }
                }
                JOINT LeftHandPinky1
                {
                  OFFSET 10.9082 -0.2264 -4.7258
                  CHANNELS 6 Xposition Yposition Zposition Zrotation Xrotation Yrotation
                  JOINT LeftHandPinky2
                  {
                    OFFSET 4.1367 0 0
                    CHANNELS 6 Xposition Yposition Zposition Zrotation Xrotation Yrotation
                    JOINT LeftHandPinky3
                    {
                      OFFSET 2.5948 0 0
                      CHANNELS 6 Xposition Yposition Zposition Zrotation Xrotation Yrotation
                      End Site
                      {
                        OFFSET 2.9239 0 0
                      }
                    }
                  }
                }
              }
            }
          }
        }
        JOINT RightShoulder
        {
          OFFSET -6.1057 9.1105 0.7056
          CHANNELS 6 Xposition Yposition Zposition Zrotation Xrotation Yrotation
          JOINT RightArm
          {
            OFFSET -12.655 -0.266 -2.6009
            CHANNELS 6 Xposition Yposition Zposition Zrotation Xrotation Yrotation
            JOINT RightForeArm
            {
              OFFSET -27.4047 0 0
              CHANNELS 6 Xposition Yposition Zposition Zrotation Xrotation Yrotation
              JOINT RightHand
              {
                OFFSET -27.6145 0 0
                CHANNELS 6 Xposition Yposition Zposition Zrotation Xrotation Yrotation
                JOINT RightHandMiddle1
                {
                  OFFSET -12.7755 0 0
                  CHANNELS 6 Xposition Yposition Zposition Zrotation Xrotation Yrotation
                  JOINT RightHandMiddle2
                  {
                    OFFSET -3.614 0 0
                    CHANNELS 6 Xposition Yposition Zposition Zrotation Xrotation Yrotation
                    JOINT RightHandMiddle3
                    {
                      OFFSET -3.4598 0 0
                      CHANNELS 6 Xposition Yposition Zposition Zrotation Xrotation Yrotation
                      End Site
                      {
                        OFFSET -3.6802 0 0
                      }
                    }
                  }
                }
                JOINT RightHandThumb1
                {
                  OFFSET -3.7888 -2.167 3.0031
                  CHANNELS 6 Xposition Yposition Zposition Zrotation Xrotation Yrotation
                  JOINT RightHandThumb2
                  {
                    OFFSET -3.6754 -2.122 2.122
                    CHANNELS 6 Xposition Yposition Zposition Zrotation Xrotation Yrotation
                    JOINT RightHandThumb3
                    {
                      OFFSET -3.3944 -1.9597 1.9598
                      CHANNELS 6 Xposition Yposition Zposition Zrotation Xrotation Yrotation
                      End Site
                      {
                        OFFSET -2.6794 -1.5469 1.5469
                      }
                    }
                  }
                }
                JOINT RightHandIndex1
                {
                  OFFSET -12.2666 -0.2317 2.8221
                  CHANNELS 6 Xposition Yposition Zposition Zrotation Xrotation Yrotation
                  JOINT RightHandIndex2
                  {
                    OFFSET -3.892 0 0
                    CHANNELS 6 Xposition Yposition Zposition Zrotation Xrotation Yrotation
                    JOINT RightHandIndex3
                    {
                      OFFSET -3.4152 0 0
                      CHANNELS 6 Xposition Yposition Zposition Zrotation Xrotation Yrotation
                      End Site
                      {
                        OFFSET -3.078 0 0
                      }
                    }
                  }
                }
                JOINT RightHandRing1
                {
                  OFFSET -12.147 0.0099 -2.2166
                  CHANNELS 6 Xposition Yposition Zposition Zrotation Xrotation Yrotation
                  JOINT RightHandRing2
                  {
                    OFFSET -3.6012 0 0
                    CHANNELS 6 Xposition Yposition Zposition Zrotation Xrotation Yrotation
                    JOINT RightHandRing3
                    {
                      OFFSET -3.3073 0 0
                      CHANNELS 6 Xposition Yposition Zposition Zrotation Xrotation Yrotation
                      End Site
                      {
                        OFFSET -3.6601 0 0
                      }
                    }
                  }
                }
                JOINT RightHandPinky1
                {
                  OFFSET -10.9082 -0.2264 -4.7258
                  CHANNELS 6 Xposition Yposition Zposition Zrotation Xrotation Yrotation
                  JOINT RightHandPinky2
                  {
                    OFFSET -4.1367 0 0
                    CHANNELS 6 Xposition Yposition Zposition Zrotation Xrotation Yrotation
                    JOINT RightHandPinky3
                    {
                      OFFSET -2.5948 0 0
                      CHANNELS 6 Xposition Yposition Zposition Zrotation Xrotation Yrotation
                      End Site
                      {
                        OFFSET -2.9239 0 0
                      }
                    }
                  }
                }
              }
            }
          }
        }
      }
    }
  }
  JOINT RightUpLeg
  {
    OFFSET -9.1245 -6.6564 -0.0554
    CHANNELS 6 Xposition Yposition Zposition Zrotation Xrotation Yrotation
    JOINT RightLeg
    {
      OFFSET -0.2447 -40.5954 -0.5145
      CHANNELS 6 Xposition Yposition Zposition Zrotation Xrotation Yrotation
      JOINT RightFoot
      {
        OFFSET 0.2447 -42.0479 -2.0602
        CHANNELS 6 Xposition Yposition Zposition Zrotation Xrotation Yrotation
        JOINT RightToeBase
        {
          OFFSET -0.3734 -10.4922 12.6407
          CHANNELS 6 Xposition Yposition Zposition Zrotation Xrotation Yrotation
          End Site
          {
            OFFSET 0 0 9.9925
          }
        }
      }
    }
  }
  JOINT LeftUpLeg
  {
    OFFSET 9.1245 -6.6564 -0.0554
    CHANNELS 6 Xposition Yposition Zposition Zrotation Xrotation Yrotation
    JOINT LeftLeg
    {
      OFFSET 0.2447 -40.5954 -0.517
      CHANNELS 6 Xposition Yposition Zposition Zrotation Xrotation Yrotation
      JOINT LeftFoot
      {
        OFFSET -0.2447 -42.048 -2.0576
        CHANNELS 6 Xposition Yposition Zposition Zrotation Xrotation Yrotation
        JOINT LeftToeBase
        {
          OFFSET 0.3734 -10.4922 12.6407
          CHANNELS 6 Xposition Yposition Zposition Zrotation Xrotation Yrotation
          End Site
          {
            OFFSET 0 0 9.9925
          }
        }
      }
    }
  }
}
MOTION
Frames:	4
Frame Time:	0.0166667
1.27532 93.8861 21.0707 -2.15457 8.66726 -24.4378 0 9.9235 -1.2273 -0.190332 8.00109 5.44367 -0.0001 11.6454 -1.4223 -0.903523 0.785254 0.754434 0.0001 13.3602 -1.6265 -0.89803 0.919744 0.747157 -8.88178e-016 15.0325 0.7929 -6.59684 4.55816 3.24645 -7.10543e-015 10.3218 3.1424 7.24014 -4.88887 4.96334 0.0002 18.4747 6.6364 3.97569e-016 -3.18055e-015 1.59028e-015 2.9479 7.6817 9.1207 3.97569e-016 -3.18055e-015 1.59028e-015 -2.9445 7.6817 9.1205 3.97569e-016 -3.18055e-015 1.59028e-015 6.1058 9.1104 0.7056 -1.39848 0.608633 -1.06827 12.655 -0.2659 -2.6009 -65.9138 -4.18391 10.8567 27.4047 0 -7.10543e-015 1.73344e-005 -7.19928e-006 -64.1093 27.6145 0 1.42109e-014 -6.85992 10.8905 -1.2545 12.7755 0 0 -4.2397 0.121244 -7.91411 3.614 0 0 -16.5865 -0.287662 1.97334 3.4598 0 7.10543e-015 -11.2578 -0.133015 1.3494 3.7888 -2.167 3.0031 8.62642 1.49217 17.2215 3.6754 -2.122 2.122 -0.789446 1.50761 2.74442 3.3944 -1.9597 1.9598 2.95232 -2.12214 -0.921738 12.2666 -0.2317 2.8221 -1.70795 0.178306 -9.03188 3.892 0 0 -13.2886 -0.185088 1.58883 3.4152 0 0 -7.55545 -0.0599958 0.908796 12.147 0.0099 -2.2166 -7.20325 0.0582512 -6.94773 3.6012 0 0 -21.2953 -0.472129 2.51087 3.3073 0 0 -15.4261 -0.249048 1.83874 10.9082 -0.2264 -4.7258 -9.00461 -0.033331 -2.39576 4.1367 1.42109e-014 0 -26.1346 1.08976 -0.655629 2.5948 0 0 -18.2003 -0.345911 2.15923 -6.1057 9.1105 0.7056 -6.83441 -4.98007 8.79924 -12.655 -0.266 -2.6009 66.7964 37.8182 -7.79959 -27.4047 7.10543e-015 0 -2.81586e-005 7.95055e-007 83.1898 -27.6145 0 0 13.0893 8.88419 3.21469 -12.7755 0 -7.10543e-015 58.0393 -3.26201 -7.01078 -3.614 -3.55271e-015 0 81.8193 -6.00274 -6.92529 -3.4598 -1.42109e-014 0 76.5268 -5.44182 -6.80933 -3.7888 -2.167 3.0031 -5.50986 7.84505 -15.7585 -3.6754 -2.122 2.122 13.7419 19.4388 -8.05092 -3.3944 -1.9597 1.9598 -10.9421 2.04423 -38.8388 -12.2666 -0.2317 2.8221 56.0065 -3.03814 -6.59868 -3.892 1.06581e-014 0 84.673 -6.34846 -6.96649 -3.4152 0 0 77.3323 -5.46415 -6.82573 -12.147 0.0099 -2.2166 60.9717 -3.62147 -7.58503 -3.6012 0 0 77.327 -5.4635 -6.82557 -3.3073 0 0 75.6679 -5.35435 -6.78549 -10.9082 -0.2264 -4.7258 63.6547 -3.97917 -8.09771 -4.1367 3.55271e-015 7.10543e-015 73.4735 -5.00806 -6.70645 -2.5948 1.42109e-014 0 75.1059 -5.20002 -6.76067 -9.1245 -6.6564 -0.0554 -1.99626 -15.2827 -19.437 -0.2447 -40.5954 -0.5145 -15.2292 33.7297 0.925189 0.2447 -42.0479 -2.0602 -3.19524 -9.56686 -28.7487 -0.3734 -10.4922 12.6407 -3.61058e-009 -4.77963 4.30424e-005 9.1245 -6.6564 -0.0554 2.99813 -23.7442 11.2296 0.2447 -40.5954 -0.517 -1.30764 54.7832 4.04821 -0.2447 -42.048 -2.0576 -0.350317 -2.93494 3.5952 0.3734 -10.4922 12.6407 3.18879 -34.7806 0.911743 
1.27307 93.6446 22.2013 -1.86705 8.71514 -24.7338 0 9.9235 -1.2273 -0.540654 8.46333 5.07726 -0.0001 11.6454 -1.4223 -0.815146 0.442653 0.69551 0.0001 13.3602 -1.6265 -0.81068 0.577137 0.690157 0 15.0325 0.7929 -6.55101 4.10224 3.17801 0 10.3218 3.1424 7.43811 -5.86649 4.95755 0.0002 18.4747 6.6364 3.97569e-016 3.18055e-015 -0 2.9479 7.6817 9.1207 3.97569e-016 3.18055e-015 -0 -2.9445 7.6817 9.1205 3.97569e-016 3.18055e-015 -0 6.1058 9.1104 0.7056 -1.32423 0.679829 -1.80741 12.655 -0.2659 -2.6009 -64.4818 -4.32042 11.7878 27.4047 0 0 2.31966e-005 -9.487e-006 -65.1068 27.6145 0 0 -6.9062 10.4976 -1.47012 12.7755 0 0 -4.72121 0.104648 -7.63441 3.614 0 0 -15.9914 -0.267522 1.90442 3.4598 7.10543e-015 0 -10.9883 -0.126736 1.3175 3.7888 -2.167 3.0031 8.62618 1.50569 17.2434 3.6754 -2.122 2.122 -0.789446 1.50761 2.74442 3.3944 -1.9597 1.9598 2.94685 -2.09889 -0.885633 12.2666 -0.2317 2.8221 -2.17563 0.169058 -8.87413 3.892 0 0 -12.9506 -0.175837 1.54912 3.4152 0 0 -7.49577 -0.0590612 0.901648 12.147 0.0099 -2.2166 -7.72336 0.0339957 -6.50869 3.6012 0 0 -20.33 -0.430708 2.40192 3.3073 7.10543e-015 1.42109e-014 -14.9233 -0.23317 1.78017 10.9082 -0.2264 -4.7258 -9.57517 -0.0577911 -1.80851 4.1367 -1.42109e-014 0 -24.7893 1.07216 -0.84329 2.5948 -7.10543e-015 0 -17.5741 -0.322678 2.08729 -6.1057 9.1105 0.7056 -6.61028 -4.95488 8.8194 -12.655 -0.266 -2.6009 65.3923 38.2452 -7.66426 -27.4047 0 0 1.08453e-006 -8.05394e-006 84.4198 -27.6145 0 0 13.2165 8.2784 3.47083 -12.7755 0 0 57.6565 -3.21345 -6.77046 -3.614 0 0 81.7946 -5.99977 -6.92487 -3.4598 0 7.10543e-015 76.5317 -5.43076 -6.8098 -3.7888 -2.167 3.0031 -5.72488 7.71272 -15.6315 -3.6754 -2.122 2.122 13.7419 19.4388 -8.05092 -3.3944 -1.9597 1.9598 -10.9264 2.00244 -38.7939 -12.2666 -0.2317 2.8221 55.8775 -3.01292 -6.40227 -3.892 7.10543e-015 0 84.673 -6.34846 -6.96649 -3.4152 0 0 77.3139 -5.46195 -6.82523 -12.147 0.0099 -2.2166 60.2657 -3.54239 -7.28423 -3.6012 0 7.10543e-015 77.2829 -5.45825 -6.82442 -3.3073 -2.84217e-014 7.10543e-015 75.6964 -5.34194 -6.78677 -10.9082 -0.2264 -4.7258 62.6547 -3.87274 -7.73889 -4.1367 -3.55271e-015 7.10543e-015 73.4735 -5.00806 -6.70645 -2.5948 -1.42109e-014 -7.10543e-015 75.1384 -5.20387 -6.76168 -9.1245 -6.6564 -0.0554 -2.54636 -15.2735 -19.2288 -0.2447 -40.5954 -0.5145 -15.328 34.1533 0.816192 0.2447 -42.0479 -2.0602 -2.72666 -9.91484 -28.7877 -0.3734 -10.4922 12.6407 1.07398e-005 -4.14413 9.28413e-006 9.1245 -6.6564 -0.0554 5.15856 -26.4037 12.5266 0.2447 -40.5954 -0.517 -3.30043 58.5476 5.26504 -0.2447 -42.048 -2.0576 -3.53651 0.161031 3.51777 0.3734 -10.4922 12.6407 5.74824 -36.0915 1.53882 
1.28057 93.328 23.2933 -1.47576 8.80862 -25.0338 0 9.9235 -1.2273 -0.924475 8.96946 4.75874 -0.0001 11.6454 -1.4223 -0.763706 0.139933 0.645318 0.0001 13.3602 -1.6265 -0.760507 0.274417 0.641031 1.77636e-015 15.0325 0.7929 -6.50495 3.67275 3.08561 0 10.3218 3.1424 7.71141 -7.06383 4.84108 0.0002 18.4747 6.6364 3.97569e-016 0 1.59028e-015 2.9479 7.6817 9.1207 3.97569e-016 0 1.59028e-015 -2.9445 7.6817 9.1205 3.97569e-016 0 1.59028e-015 6.1058 9.1104 0.7056 -1.32994 0.766871 -2.65539 12.655 -0.2659 -2.6009 -62.6837 -4.27135 12.6988 27.4047 0 7.10543e-015 -1.21873e-005 2.76146e-006 -66.099 27.6145 0 7.10543e-015 -7.01602 10.1173 -1.74123 12.7755 0 -7.10543e-015 -5.10619 0.0791792 -7.32333 3.614 0 0 -15.3539 -0.246744 1.83034 3.4598 0 -7.10543e-015 -10.7196 -0.120607 1.28566 3.7888 -2.167 3.0031 8.63861 1.52125 17.2824 3.6754 -2.122 2.122 -0.789446 1.50761 2.74442 3.3944 -1.9597 1.9598 2.94214 -2.07977 -0.855716 12.2666 -0.2317 2.8221 -2.59624 0.146256 -8.61739 3.892 0 0 -12.3775 -0.160662 1.48165 3.4152 0 0 -7.41934 -0.0578782 0.892511 12.147 0.0099 -2.2166 -8.08282 0.00606596 -6.11845 3.6012 -1.42109e-014 0 -19.5559 -0.398837 2.31407 3.3073 0 -7.10543e-015 -14.459 -0.218953 1.72595 10.9082 -0.2264 -4.7258 -9.92655 -0.0824421 -1.33824 4.1367 1.42109e-014 0 -23.8494 1.05724 -0.97412 2.5948 0 -7.10543e-015 -16.992 -0.301808 2.02019 -6.1057 9.1105 0.7056 -6.52674 -4.95049 8.78014 -12.655 -0.266 -2.6009 63.7445 38.7757 -7.31724 -27.4047 0 0 -5.82579e-006 8.63058e-006 85.7266 -27.6145 0 1.42109e-014 13.4387 7.72815 3.66223 -12.7755 0 -7.10543e-015 57.416 -3.17584 -6.58758 -3.614 7.10543e-015 -7.10543e-015 81.7785 -5.99781 -6.92459 -3.4598 0 0 76.5337 -5.41876 -6.81034 -3.7888 -2.167 3.0031 -5.86 7.61541 -15.5231 -3.6754 -2.122 2.122 13.7419 19.4388 -8.05092 -3.3944 -1.9597 1.9598 -10.9149 1.97158 -38.7607 -12.2666 -0.2317 2.8221 55.8336 -2.99432 -6.26288 -3.892 -7.10543e-015 -7.10543e-015 84.673 -6.34846 -6.96649 -3.4152 0 0 77.3014 -5.46045 -6.82488 -12.147 0.0099 -2.2166 59.7774 -3.47887 -7.04295 -3.6012 7.10543e-015 0 77.2517 -5.45452 -6.82353 -3.3073 0 0 75.712 -5.32798 -6.78789 -10.9082 -0.2264 -4.7258 61.9432 -3.78511 -7.44249 -4.1367 -3.55271e-015 -7.10543e-015 73.4735 -5.00806 -6.70645 -2.5948 0 -7.10543e-015 75.1526 -5.20555 -6.76214 -9.1245 -6.6564 -0.0554 -3.27287 -15.3623 -18.8953 -0.2447 -40.5954 -0.5145 -15.2753 34.8654 0.758141 0.2447 -42.0479 -2.0602 -2.34171 -10.4094 -29.0196 -0.3734 -10.4922 12.6407 -1.40624e-005 -3.81039 8.04159e-006 9.1245 -6.6564 -0.0554 6.84258 -29.3012 13.652 0.2447 -40.5954 -0.517 -5.24599 62.3594 7.66661 -0.2447 -42.048 -2.0576 -4.39722 0.0476745 3.69697 0.3734 -10.4922 12.6407 5.24318 -32.4189 1.15027 
1.30175 92.9217 24.3395 -1.03242 8.96007 -25.3258 -8.88178e-016 9.9235 -1.2273 -1.26012 9.51353 4.4952 -0.0001 11.6454 -1.4223 -0.75506 -0.0864079 0.605812 0.0001 13.3602 -1.6265 -0.753405 0.0481472 0.601423 0 15.0325 0.7929 -6.43637 3.28658 2.9628 0 10.3218 3.1424 7.9971 -8.4644 4.62812 0.0002 18.4747 6.6364 -8.82781e-032 -1.59028e-015 -3.18055e-015 2.9479 7.6817 9.1207 -8.82781e-032 -1.59028e-015 -3.18055e-015 -2.9445 7.6817 9.1205 -8.82781e-032 -1.59028e-015 -3.18055e-015 6.1058 9.1104 0.7056 -1.38846 0.867753 -3.59333 12.655 -0.2659 -2.6009 -60.572 -4.06674 13.5545 27.4047 -1.42109e-014 -1.42109e-014 2.76058e-005 -5.55384e-006 -67.0594 27.6145 0 0 -7.12655 9.73285 -2.10512 12.7755 0 7.10543e-015 -5.43657 0.0520795 -6.99897 3.614 0 0 -14.6472 -0.224666 1.74795 3.4598 0 0 -10.4651 -0.114991 1.25547 3.7888 -2.167 3.0031 8.65789 1.53549 17.3263 3.6754 -2.122 2.122 -0.789446 1.50761 2.74442 3.3944 -1.9597 1.9598 2.93739 -2.05998 -0.82488 12.2666 -0.2317 2.8221 -3.00536 0.119869 -8.29062 3.892 -1.42109e-014 1.42109e-014 -11.5626 -0.140296 1.38546 3.4152 0 -7.10543e-015 -7.33413 -0.0565491 0.882328 12.147 0.0099 -2.2166 -8.33317 -0.0204698 -5.78273 3.6012 0 0 -18.9185 -0.37349 2.24141 3.3073 -7.10543e-015 0 -14.0547 -0.206936 1.67868 10.9082 -0.2264 -4.7258 -10.1198 -0.10331 -0.980581 4.1367 -1.42109e-014 0 -23.2321 1.04631 -1.05993 2.5948 0 0 -16.4887 -0.284302 1.96203 -6.1057 9.1105 0.7056 -6.53614 -4.94681 8.64594 -12.655 -0.266 -2.6009 61.7685 39.3667 -6.69333 -27.4047 1.42109e-014 -1.42109e-014 -3.93996e-005 1.09305e-007 87.0661 -27.6145 0 -1.42109e-014 13.7781 7.2305 3.79867 -12.7755 0 7.10543e-015 57.3107 -3.14857 -6.4569 -3.614 0 7.10543e-015 81.7704 -5.99683 -6.92444 -3.4598 -1.42109e-014 7.10543e-015 76.5313 -5.40507 -6.81084 -3.7888 -2.167 3.0031 -5.93336 7.54726 -15.4312 -3.6754 -2.122 2.122 13.7419 19.4388 -8.05092 -3.3944 -1.9597 1.9598 -10.9071 1.95062 -38.7381 -12.2666 -0.2317 2.8221 55.8804 -2.98366 -6.18394 -3.892 7.10543e-015 -7.10543e-015 84.673 -6.34846 -6.96649 -3.4152 0 0 77.2916 -5.45929 -6.82463 -12.147 0.0099 -2.2166 59.4843 -3.42808 -6.8456 -3.6012 0 0 77.2319 -5.45217 -6.82301 -3.3073 -1.42109e-014 7.10543e-015 75.7153 -5.31148 -6.78877 -10.9082 -0.2264 -4.7258 61.4839 -3.71135 -7.18408 -4.1367 3.55271e-015 7.10543e-015 73.4735 -5.00806 -6.70645 -2.5948 1.42109e-014 0 75.1502 -5.20528 -6.76206 -9.1245 -6.6564 -0.0554 -4.09335 -15.5177 -18.4739 -0.2447 -40.5954 -0.5145 -15.1262 35.7929 0.77531 0.2447 -42.0479 -2.0602 -1.78563 -11.2147 -29.3309 -0.3734 -10.4922 12.6407 4.40226e-006 -3.92081 -1.0717e-005 9.1245 -6.6564 -0.0554 8.48782 -32.7282 14.5364 0.2447 -40.5954 -0.517 -7.15134 65.9666 10.8133 -0.2447 -42.048 -2.0576 -5.63586 -0.52383 4.54 0.3734 -10.4922 12.6407 3.99178 -28.3655 0.734549 
